<svg width="48" height="48" viewBox="0 0 48 48" fill="none" xmlns="http://www.w3.org/2000/svg">
    <rect width="48" height="48" rx="8" fill="#0e1813" />
    <rect x="3" y="3" width="42" height="42" rx="6" fill="#16a34a" />
    <path
        d="M20.35 32.48c-1.42.86-3.07 1.29-4.95 1.29-2.94 0-5.29-.9-7.05-2.69-1.74-1.81-2.61-4.26-2.61-7.35 0-3.02.91-5.43 2.74-7.22 1.84-1.81 4.32-2.72 7.43-2.72 1.39 0 2.7.15 3.92.46 1.24.29 2.28.72 3.12 1.28l-1.36 3.47a12.1 12.1 0 0 0-2.59-1.02 11.7 11.7 0 0 0-2.92-.37c-1.87 0-3.34.54-4.4 1.61-1.04 1.06-1.56 2.57-1.56 4.51 0 1.98.49 3.52 1.47 4.6.99 1.06 2.36 1.59 4.11 1.59.97 0 1.8-.12 2.49-.35v-3.67h-3.75v-3.47h7.92v9.23c-.45.32-1.12.7-2.02 1.13Z"
        fill="#08100c" />
    <path
        d="M26.02 14.12h5.16l4.16 12.16 4.2-12.16h5.12v19.36h-4.05v-6.92l.43-6.58-4.51 13.5h-2.44l-4.49-13.42.43 6.5v6.92h-4.01V14.12Z"
        fill="#08100c" />
</svg>
